<svg xmlns="http://www.w3.org/2000/svg" viewBox="0 0 900 760" role="img" aria-labelledby="title desc">
  <title id="title">DivineDhenu logo</title>
  <desc id="desc">Gold cow and calf emblem with DivineDhenu wordmark.</desc>
  <rect width="900" height="760" fill="#fffaf2"/>
  <g fill="none" stroke="#b59a4b" stroke-width="13" stroke-linecap="round" stroke-linejoin="round" opacity="0.95">
    <path d="M258 330c17-126 106-218 195-218 91 0 177 91 190 221"/>
    <path d="M229 294c-55 17-93 55-110 109"/>
    <path d="M671 294c55 17 94 55 111 109"/>
    <path d="M286 212c-27-28-45-63-50-103"/>
    <path d="M614 212c27-28 45-63 50-103"/>
    <path d="M345 142c-12-32-13-67-3-101"/>
    <path d="M555 142c12-32 13-67 3-101"/>
  </g>
  <g fill="#b59a4b" opacity="0.96">
    <ellipse cx="227" cy="245" rx="22" ry="48" transform="rotate(-47 227 245)"/>
    <ellipse cx="280" cy="179" rx="19" ry="42" transform="rotate(-32 280 179)"/>
    <ellipse cx="352" cy="121" rx="17" ry="39" transform="rotate(-15 352 121)"/>
    <ellipse cx="673" cy="245" rx="22" ry="48" transform="rotate(47 673 245)"/>
    <ellipse cx="620" cy="179" rx="19" ry="42" transform="rotate(32 620 179)"/>
    <ellipse cx="548" cy="121" rx="17" ry="39" transform="rotate(15 548 121)"/>
    <path d="M450 70l18 62 58 15-50 32 4 62-30-51-30 51 4-62-50-32 58-15z"/>
    <path d="M345 409c-34 62-9 151 75 181 69 24 148-10 181-75 22-44 22-91 3-133-20 47-65 80-117 80-62 0-116-36-142-53z"/>
    <path d="M573 493c34-34 88-32 122 0 21 20 36 51 29 83-50-2-101-19-151-83z"/>
  </g>
  <g fill="#fdf8ec" stroke="#7c5d24" stroke-width="10" stroke-linecap="round" stroke-linejoin="round">
    <path d="M450 221c-64 2-118 58-118 143 0 88 55 151 118 151s118-63 118-151c0-85-54-141-118-143z"/>
    <path d="M350 276c-48-8-79 16-95 58 42 13 79 5 111-24"/>
    <path d="M550 276c48-8 79 16 95 58-42 13-79 5-111-24"/>
    <path d="M402 238c-31-43-74-56-111-40 18 48 52 73 102 77"/>
    <path d="M498 238c31-43 74-56 111-40-18 48-52 73-102 77"/>
  </g>
  <g fill="#7c5d24">
    <ellipse cx="409" cy="366" rx="11" ry="18"/>
    <ellipse cx="491" cy="366" rx="11" ry="18"/>
    <path d="M450 323l15 32h-30z"/>
    <ellipse cx="427" cy="450" rx="13" ry="10"/>
    <ellipse cx="473" cy="450" rx="13" ry="10"/>
    <path d="M416 480c23 18 47 18 68 0-12 31-54 31-68 0z"/>
  </g>
  <g fill="none" stroke="#b59a4b" stroke-width="14" stroke-linecap="round">
    <path d="M72 647h756"/>
    <path d="M72 704h756"/>
  </g>
  <text x="450" y="690" text-anchor="middle" font-family="Georgia, 'Times New Roman', serif" font-size="92" fill="#b59a4b" letter-spacing="3">
    DivineDhenu
  </text>
</svg>
